<svg xmlns="http://www.w3.org/2000/svg" viewBox="0 0 57.7 57.7"><style>.i{fill:#22262C}.b{fill:#2563EB}@media (prefers-color-scheme:dark){.i{fill:#EDEDED}.b{fill:#3B82F6}}</style><g class="i"><circle cx="20.500" cy="28.850" r="20.5"/><rect x="20.476" y="8.326" width="7.848" height="7.848" rx="1.648"/><rect x="29.280" y="8.830" width="6.840" height="6.840" rx="1.436"/><rect x="38.156" y="9.406" width="5.688" height="5.688" rx="1.194"/><rect x="46.728" y="10.378" width="3.744" height="3.744" rx="0.786"/><rect x="55.120" y="11.170" width="2.160" height="2.160" rx="0.454"/><rect x="37.603" y="17.153" width="6.794" height="6.794" rx="1.427"/><rect x="46.364" y="18.314" width="4.472" height="4.472" rx="0.939"/><rect x="54.910" y="19.260" width="2.580" height="2.580" rx="0.542"/><rect x="37.050" y="24.900" width="7.900" height="7.900" rx="1.659"/><rect x="46.000" y="26.250" width="5.200" height="5.200" rx="1.092"/><rect x="54.700" y="27.350" width="3.000" height="3.000" rx="0.630"/><rect x="37.603" y="33.753" width="6.794" height="6.794" rx="1.427"/><rect x="46.364" y="34.914" width="4.472" height="4.472" rx="0.939"/><rect x="54.910" y="35.860" width="2.580" height="2.580" rx="0.542"/><rect x="20.476" y="41.526" width="7.848" height="7.848" rx="1.648"/><rect x="29.280" y="42.030" width="6.840" height="6.840" rx="1.436"/><rect x="38.156" y="42.606" width="5.688" height="5.688" rx="1.194"/><rect x="46.728" y="43.578" width="3.744" height="3.744" rx="0.786"/><rect x="55.120" y="44.370" width="2.160" height="2.160" rx="0.454"/></g></svg>
